<svg xmlns="http://www.w3.org/2000/svg" viewBox="0 0 166 166"><defs><style>.cls-1{fill:#ff9022;}</style></defs><title>trax_coin</title><g id="Capa_2" data-name="Capa 2"><g id="Capa_1-2" data-name="Capa 1"><path class="cls-1" d="M166,83c0-11.46-9.72-20.32-13.54-29.34s-3.26-21.84-10.77-29.35-20.33-7-29.35-10.77S94.46,0,83,0,62.68,9.72,53.66,13.54,31.82,16.8,24.31,24.31s-7,20.33-10.77,29.35S0,71.54,0,83s9.72,20.32,13.54,29.34,3.26,21.84,10.77,29.35,20.33,7,29.35,10.77S71.54,166,83,166s20.32-9.72,29.34-13.54,21.84-3.26,29.35-10.77,7-20.33,10.77-29.35S166,94.46,166,83Z"/></g></g></svg>